<svg id="Delete" xmlns="http://www.w3.org/2000/svg" width="40.361" height="40.361" viewBox="0 0 40.361 40.361">
  <g id="Delete-2" data-name="Delete" transform="translate(0 0)">
    <path id="Path_3016" data-name="Path 3016" d="M88.812,108.991A20.181,20.181,0,1,1,108.993,88.81,20.2,20.2,0,0,1,88.812,108.991Zm0-38.371A18.19,18.19,0,1,0,107,88.81,18.211,18.211,0,0,0,88.812,70.62Z" transform="translate(-68.632 -68.63)" fill="#fff"/>
    <path id="Path_3017" data-name="Path 3017" d="M198.522,199.048l-4.365-4.366,4.05-4.051a1.96,1.96,0,0,0-2.772-2.773l-4.051,4.051-4.249-4.249a1.961,1.961,0,0,0-2.773,2.773l4.249,4.249-4.564,4.564a1.96,1.96,0,0,0,2.772,2.773l4.564-4.564,4.366,4.366a1.96,1.96,0,0,0,2.772-2.773Z" transform="translate(-171.104 -174.328)" fill="#fff"/>
  </g>
</svg>
