<svg xmlns="http://www.w3.org/2000/svg" width="23.344" height="39.985" viewBox="0 0 23.344 39.985">
  <g id="Icon_ionic-ios-flash-off" data-name="Icon ionic-ios-flash-off" transform="translate(-8.485 -1.725)">
    <path id="Path_3228" data-name="Path 3228" d="M31.083,37.675,11.3,3.983A1.252,1.252,0,0,0,9.609,3.54a1.216,1.216,0,0,0-.443,1.677l19.779,33.7a1.231,1.231,0,0,0,1.069.608,1.273,1.273,0,0,0,.626-.165A1.242,1.242,0,0,0,31.083,37.675Z" transform="translate(0 0.266)" fill="#fff" stroke="#bec2ce" stroke-width="1"/>
    <path id="Path_3229" data-name="Path 3229" d="M23.693,23.509l5.032-6.587a.733.733,0,0,0-.547-1.164H19.139Z" transform="translate(2.393 3.188)" fill="#fff" stroke="#bec2ce" stroke-width="1"/>
    <path id="Path_3230" data-name="Path 3230" d="M24.078,2.694a.351.351,0,0,0-.626-.3l-7.491,9.837,3.685,6.283Z" transform="translate(1.643)" fill="#fff" stroke="#bec2ce" stroke-width="1"/>
    <path id="Path_3231" data-name="Path 3231" d="M14.163,13.971,9.131,20.558a.733.733,0,0,0,.547,1.164h9.029Z" transform="translate(0 2.767)" fill="#fff" stroke="#bec2ce" stroke-width="1"/>
    <path id="Path_3232" data-name="Path 3232" d="M13.474,36.412a.351.351,0,0,0,.626.3l7.491-9.837-3.685-6.283Z" transform="translate(1.055 4.328)" fill="#fff" stroke="#bec2ce" stroke-width="1"/>
  </g>
</svg>
