<svg xmlns="http://www.w3.org/2000/svg" width="40.719" height="40.72" viewBox="0 0 40.719 40.72">
  <g id="Stop" transform="translate(0 0)">
    <path id="Path_3018" data-name="Path 3018" d="M88.992,109.35a20.36,20.36,0,1,1,20.359-20.36A20.383,20.383,0,0,1,88.992,109.35Zm0-38.712A18.352,18.352,0,1,0,107.343,88.99,18.373,18.373,0,0,0,88.992,70.638Z" transform="translate(-68.632 -68.63)" fill="#fff"/>
    <path id="Path_3019" data-name="Path 3019" d="M197.867,184.031H185.832a1.805,1.805,0,0,0-1.8,1.8v12.034a1.805,1.805,0,0,0,1.8,1.8h12.034a1.805,1.805,0,0,0,1.8-1.8V185.834A1.805,1.805,0,0,0,197.867,184.031Z" transform="translate(-171.49 -171.491)" fill="#fff"/>
  </g>
</svg>
