<svg xmlns="http://www.w3.org/2000/svg" width="48" height="36.25" viewBox="0 0 48 36.25">
  <g id="switch-camera" transform="translate(0.5 -59.5)">
    <g id="Group_2209" data-name="Group 2209" transform="translate(0 60)">
      <g id="Group_2208" data-name="Group 2208" transform="translate(0 0)">
        <path id="Path_3024" data-name="Path 3024" d="M43.083,65.483V63.917a.783.783,0,0,0-.783-.783H37.6a.783.783,0,0,0-.783.783v1.567H34.922l-2.006-3.509A3.925,3.925,0,0,0,29.515,60H17.485a3.925,3.925,0,0,0-3.4,1.974l-2.006,3.509H11.75v-2.35a.783.783,0,0,0-.783-.783H4.7a.783.783,0,0,0-.783.783v2.35A3.921,3.921,0,0,0,0,69.4V91.333A3.921,3.921,0,0,0,3.917,95.25H43.083A3.921,3.921,0,0,0,47,91.333V69.4A3.921,3.921,0,0,0,43.083,65.483Zm-4.7-.783h3.133v.783H38.383Zm-32.9-.783h4.7v1.567h-4.7Zm39.95,27.417a2.35,2.35,0,0,1-2.35,2.35H3.917a2.35,2.35,0,0,1-2.35-2.35V69.4a2.35,2.35,0,0,1,2.35-2.35h8.617a.783.783,0,0,0,.68-.392l2.231-3.9a2.357,2.357,0,0,1,2.041-1.188h12.03a2.357,2.357,0,0,1,2.037,1.184l2.235,3.907a.783.783,0,0,0,.68.392h8.617a2.35,2.35,0,0,1,2.35,2.35Z" transform="translate(0 -60)" fill="#fff" stroke="#bec2ce" stroke-width="1"/>
        <path id="Path_3025" data-name="Path 3025" d="M111.747,240.751h0a.783.783,0,0,0-1.011.452,10.183,10.183,0,0,1-19.621-2.452l1.912,1.912a.783.783,0,1,0,1.127-1.088l-.019-.019-3.324-3.324a.783.783,0,0,0-1.108,0l-3.328,3.324a.783.783,0,0,0,1.108,1.108l2.037-2.037a11.75,11.75,0,0,0,22.676,3.139A.783.783,0,0,0,111.747,240.751Z" transform="translate(-77.718 -218.768)" fill="#fff" stroke="#bec2ce" stroke-width="1"/>
        <path id="Path_3026" data-name="Path 3026" d="M152,140.639l-.019.019-2.037,2.037a11.75,11.75,0,0,0-22.694-3.094.783.783,0,1,0,1.466.554,10.183,10.183,0,0,1,19.637,2.42l-1.912-1.916a.783.783,0,0,0-1.127,1.088l.019.019,3.324,3.324a.783.783,0,0,0,1.108,0l3.324-3.324A.783.783,0,1,0,152,140.639Z" transform="translate(-114.746 -124.952)" fill="#fff" stroke="#bec2ce" stroke-width="1"/>
      </g>
    </g>
  </g>
</svg>
